<?xml version="1.0" encoding="UTF-8" standalone="no"?>
<!-- Created with Inkscape (http://www.inkscape.org/) -->

<svg
   xmlns:dc="http://purl.org/dc/elements/1.1/"
   xmlns:cc="http://creativecommons.org/ns#"
   xmlns:rdf="http://www.w3.org/1999/02/22-rdf-syntax-ns#"
   xmlns:svg="http://www.w3.org/2000/svg"
   xmlns="http://www.w3.org/2000/svg"
   xmlns:sodipodi="http://sodipodi.sourceforge.net/DTD/sodipodi-0.dtd"
   xmlns:inkscape="http://www.inkscape.org/namespaces/inkscape"
   width="37.887104"
   height="40.066025"
   version="1.1"
   inkscape:version="0.48.2 r9819">
  <defs
     id="defs4" />
  <metadata
     id="metadata7">
    <rdf:RDF>
      <cc:Work
         rdf:about="">
        <dc:format>image/svg+xml</dc:format>
        <dc:type
           rdf:resource="http://purl.org/dc/dcmitype/StillImage" />
        <dc:title></dc:title>
      </cc:Work>
    </rdf:RDF>
  </metadata>
  <g
     inkscape:label="Layer 1"
     inkscape:groupmode="layer"
     id="layer1"
     transform="translate(-122.55645,-744.7505)">
    <path
       sodipodi:type="star"
       style="fill:#000000;fill-opacity:1;stroke:none"
       id="path3028"
       sodipodi:sides="8"
       sodipodi:cx="85.714287"
       sodipodi:cy="117.36218"
       sodipodi:r1="39.755634"
       sodipodi:r2="80.622581"
       sodipodi:arg1="0.19528138"
       sodipodi:arg2="0.58798042"
       inkscape:flatsided="false"
       inkscape:rounded="0.4"
       inkscape:randomized="0.219"
       d="m 117.56286,136.69867 c -5.17442,15.92013 56.34074,25.41022 50.80891,41.48503 -5.53184,16.07482 -56.14388,-20.05417 -74.305412,-14.68758 -18.161533,5.36659 25.256442,44.62336 9.039072,48.87874 C 86.888058,216.63024 89.485672,161.78201 71.511606,162.72318 53.53754,163.66436 42.626416,204.06549 28.048234,192.77687 13.470052,181.48826 53.18864,156.40151 44.144127,138.62211 35.099615,120.84271 16.143415,139.77338 15.503966,120.96997 14.864517,102.16657 31.255596,110.06148 36.071498,92.081328 40.8874,74.101174 8.0983209,87.421161 14.725135,69.998892 21.351949,52.576623 41.08247,95.686678 58.98706,91.009631 76.891649,86.332584 59.258372,52.104862 78.122996,50.05201 96.987622,47.999158 65.266482,80.579638 84.062777,85.406456 102.85907,90.233273 120.51005,39.44264 133.72877,50.356936 c 13.21871,10.914297 -23.82317,28.014392 -15.47691,43.209592 8.34626,15.195202 43.09899,-17.182112 49.37742,1.384006 6.27843,18.566116 -44.89201,25.828016 -50.06642,41.748136 z"
       inkscape:transform-center-x="-1.7037414"
       inkscape:transform-center-y="-5.145011"
       transform="matrix(0.2446111,0,0,0.2446111,119.17177,732.80968)" />
  </g>
</svg>
